 <svg  version="1.0" xmlns="http://www.w3.org/2000/svg"  width="900.000000pt" height="900.000000pt" viewBox="0 0 900.000000 900.000000"  preserveAspectRatio="xMidYMid meet">  <g transform="translate(0.000000,900.000000) scale(0.100000,-0.100000)" fill="#f6fff8" stroke="none"> <path d="M2853 5616 c-34 -6 -68 -17 -75 -23 -6 -7 -29 -13 -49 -13 -24 0 -39 -5 -43 -15 -3 -8 -15 -15 -26 -15 -21 0 -38 -10 -68 -42 -9 -10 -24 -18 -34 -18 -10 0 -18 -5 -18 -10 0 -6 -7 -13 -16 -17 -23 -9 -99 -90 -130 -139 -16 -24 -31 -44 -35 -44 -4 0 -10 -13 -14 -30 -4 -16 -11 -30 -16 -30 -5 0 -9 -13 -9 -29 0 -16 -6 -34 -14 -40 -7 -6 -16 -26 -20 -43 -19 -95 -24 -106 -54 -100 -34 6 -89 48 -97 73 -6 19 38 89 56 89 18 0 61 50 55 65 -7 20 -84 20 -110 0 -11 -8 -32 -15 -47 -15 -15 0 -29 -7 -33 -15 -3 -8 -12 -15 -19 -15 -8 0 -28 -16 -45 -35 -28 -30 -32 -41 -32 -92 0 -48 4 -62 25 -83 35 -36 53 -50 64 -50 5 0 16 -6 23 -12 24 -23 88 -48 123 -48 18 0 40 -7 49 -15 11 -11 38 -15 103 -15 50 -1 105 -7 128 -15 55 -20 265 -20 342 0 33 9 101 15 159 15 65 0 117 5 144 15 23 8 56 15 72 15 16 0 37 4 46 9 9 4 35 11 57 15 l40 6 -30 -17 c-16 -9 -48 -20 -70 -24 -22 -4 -58 -12 -80 -18 -65 -17 -145 -32 -220 -41 -38 -5 -97 -14 -130 -19 -83 -13 -282 -13 -330 0 -49 13 -154 25 -179 21 -16 -3 -17 -10 -12 -55 4 -29 11 -53 16 -55 5 -2 12 -20 16 -40 4 -20 12 -44 18 -52 7 -8 21 -32 31 -52 11 -21 23 -38 27 -38 3 0 10 -9 13 -21 8 -24 144 -159 161 -159 6 0 17 -7 24 -15 7 -8 18 -15 26 -15 7 0 33 -13 57 -30 25 -16 56 -30 70 -30 13 0 30 -7 37 -15 18 -22 356 -21 384 0 11 8 30 15 42 15 23 0 78 26 102 48 7 6 22 12 32 12 10 0 20 7 24 15 3 8 11 15 18 15 22 0 188 167 188 189 0 5 7 14 15 21 8 7 15 21 15 31 0 9 7 24 15 32 7 8 17 26 21 41 3 14 10 29 15 32 5 3 9 20 9 38 0 18 7 41 15 52 20 27 22 262 1 270 -8 3 -14 21 -14 47 -1 38 -20 93 -54 152 -6 11 -15 27 -20 35 -4 8 -11 22 -15 30 -4 8 -12 20 -17 26 -6 7 -24 29 -41 49 -49 60 -73 85 -85 85 -6 0 -13 7 -16 15 -4 8 -12 15 -19 15 -6 0 -23 9 -36 20 -13 11 -29 23 -34 28 -6 5 -23 12 -38 16 -15 3 -27 11 -27 16 0 6 -14 10 -31 10 -17 0 -40 6 -52 12 -62 35 -205 45 -324 24z m538 -702 c-18 -8 -38 -13 -45 -11 -14 6 32 26 59 26 14 -1 10 -5 -14 -15z"/> <path d="M3752 5467 c-12 -13 -22 -27 -22 -30 0 -10 58 -67 68 -67 4 0 27 -18 52 -40 25 -22 48 -40 53 -40 35 -1 -73 -100 -110 -100 -10 0 -31 7 -47 15 -15 8 -34 15 -41 15 -18 0 -45 -34 -45 -56 0 -21 32 -54 53 -54 20 0 41 -42 47 -95 5 -48 7 -50 37 -53 29 -3 34 1 50 35 9 21 20 54 23 73 4 27 10 36 29 38 13 2 31 10 38 18 27 27 52 17 59 -23 4 -21 12 -41 17 -45 6 -3 13 -34 15 -67 l4 -61 39 0 c29 0 39 5 44 20 3 11 11 20 16 20 5 0 9 54 9 125 0 111 2 126 18 132 9 3 29 17 44 31 15 13 37 30 49 36 12 6 31 26 41 45 26 47 16 86 -27 107 -32 15 -38 15 -82 -2 -26 -10 -52 -24 -56 -31 -4 -7 -18 -13 -30 -13 -13 0 -29 -6 -35 -12 -10 -10 -17 -10 -32 0 -11 6 -31 12 -44 12 -14 0 -31 6 -38 13 -23 21 -62 44 -90 51 -16 3 -28 11 -28 16 0 20 -57 10 -78 -13z"/> <path d="M5090 4795 c-9 -11 -11 -58 -9 -175 2 -88 1 -160 -3 -160 -5 0 -8 13 -8 29 0 38 -26 87 -69 127 -27 25 -44 33 -85 36 -99 8 -133 -1 -182 -46 -25 -24 -44 -51 -44 -63 0 -37 -18 -35 -31 4 -10 32 -26 51 -75 92 -11 9 -89 15 -159 13 -32 -2 -50 -10 -83 -41 -27 -25 -42 -48 -42 -63 0 -13 -7 -33 -15 -44 -8 -10 -15 -28 -15 -39 0 -15 -5 -12 -23 15 -20 28 -22 38 -13 62 6 15 14 28 18 28 4 0 8 19 8 42 0 41 -34 128 -50 128 -5 0 -15 6 -23 14 -15 16 -47 18 -219 17 l-118 -1 0 -265 0 -265 163 0 163 0 41 39 c28 25 44 50 48 75 9 48 23 46 31 -5 4 -22 13 -43 20 -46 8 -3 14 -10 14 -15 0 -15 43 -47 62 -48 10 0 33 -7 51 -16 31 -15 36 -15 65 0 17 9 40 16 51 16 25 0 83 57 100 98 14 33 31 34 31 3 0 -30 71 -95 120 -109 25 -8 52 -13 60 -13 35 0 111 29 134 50 35 33 66 95 66 131 0 17 4 30 9 30 6 0 9 -40 8 -92 l-2 -93 73 -3 72 -3 0 55 c0 30 4 57 9 60 5 3 26 -21 47 -54 l38 -60 147 0 c98 0 150 4 155 11 4 6 6 60 6 120 0 60 4 109 9 109 5 0 9 -8 9 -19 0 -10 7 -24 15 -31 8 -7 15 -19 15 -26 0 -8 4 -14 10 -14 5 0 12 -11 16 -24 3 -14 12 -27 20 -30 8 -3 14 -15 14 -26 0 -11 4 -20 10 -20 5 0 12 -11 16 -25 6 -25 8 -26 88 -23 l81 3 0 260 0 260 -80 0 -80 0 0 -118 c0 -64 -3 -117 -7 -117 -5 0 -8 4 -8 10 0 9 -55 103 -73 125 -4 6 -19 30 -31 55 l-24 45 -81 3 -81 3 0 -242 0 -242 -20 26 c-11 14 -20 30 -20 36 0 6 -4 11 -10 11 -5 0 -12 11 -16 25 -3 14 -10 25 -14 25 -5 0 -16 14 -24 31 -18 37 -19 35 65 127 19 21 29 41 27 55 -3 20 -9 22 -80 25 -71 3 -78 1 -89 -20 -6 -13 -20 -31 -30 -41 -18 -17 -19 -15 -19 83 0 132 -5 140 -79 140 -39 0 -63 -5 -71 -15z m-994 -160 c18 -15 25 -28 19 -34 -17 -15 -86 -34 -95 -25 -10 12 -20 70 -13 78 15 14 62 4 89 -19z m406 -122 c18 -21 25 -85 14 -125 -12 -41 -55 -39 -78 3 -10 17 -18 39 -18 49 0 34 37 89 61 90 3 0 13 -8 21 -17z m403 1 c21 -14 25 -24 25 -67 0 -56 -19 -87 -55 -87 -35 0 -45 20 -45 87 0 48 4 64 18 72 23 14 29 14 57 -5z m-804 -74 c11 -6 19 -21 19 -35 0 -21 -6 -25 -45 -31 -54 -8 -75 6 -70 44 1 15 3 28 4 30 3 7 75 1 92 -8z"/> <path d="M6155 4785 c-16 -8 -40 -14 -53 -15 -27 0 -92 -46 -92 -65 0 -7 -7 -18 -15 -25 -20 -17 -45 -109 -45 -170 0 -61 27 -162 46 -173 8 -4 14 -12 14 -18 0 -16 73 -79 92 -79 10 0 36 -7 58 -16 37 -15 43 -15 80 0 22 9 53 16 69 16 19 0 42 13 70 38 l41 37 0 100 c0 55 -5 107 -10 115 -13 20 -178 27 -221 10 -28 -12 -30 -15 -27 -64 l3 -51 45 -3 c57 -4 69 -15 45 -42 -28 -31 -100 -22 -127 15 -4 6 -8 58 -8 116 0 98 2 107 24 128 30 28 85 26 101 -4 31 -62 39 -66 106 -63 58 3 64 5 67 25 2 13 -4 33 -12 45 -9 12 -16 30 -16 39 0 28 -70 89 -102 89 -16 0 -45 7 -65 15 -19 8 -36 15 -37 14 0 0 -14 -7 -31 -14z"/> <path d="M6578 4651 c-49 -6 -118 -55 -118 -83 0 -8 -7 -23 -15 -34 -22 -29 -19 -141 5 -196 21 -48 70 -98 97 -99 10 0 33 -6 52 -13 28 -10 42 -9 84 5 59 20 126 75 127 105 0 11 7 29 15 40 19 25 19 94 0 130 -8 16 -15 36 -15 46 0 25 -88 98 -119 98 -14 0 -35 2 -46 4 -11 2 -41 0 -67 -3z m73 -131 c16 -9 19 -22 19 -73 0 -34 -4 -67 -8 -73 -15 -21 -41 -23 -66 -3 -35 28 -37 108 -4 139 25 23 32 24 59 10z"/> </g> </svg> 